<?xml version="1.0" encoding="UTF-8"?>
<svg width="30px" height="20px" viewBox="0 0 30 20" version="1.1" xmlns="http://www.w3.org/2000/svg" xmlns:xlink="http://www.w3.org/1999/xlink">
    <!-- Generator: Sketch 47.1 (45422) - http://www.bohemiancoding.com/sketch -->
    <title>Shape</title>
    <desc>Created with Sketch.</desc>
    <defs></defs>
    <g id="Page-1" stroke="none" stroke-width="1" fill="none" fill-rule="evenodd">
        <g id="Portfolio-01-c" transform="translate(-292.000000, -487.000000)" fill="#FFFFFF">
            <g id="link" transform="translate(158.000000, 484.000000)">
                <path d="M149,-2 C148.293139,-2 147.721414,-1.41880944 147.721414,-0.700246566 L147.721414,23.5829517 L141.172557,16.9256781 C140.673597,16.4184572 139.873181,16.4184572 139.37422,16.9256781 C138.87526,17.4328989 138.87526,18.2465657 139.37422,18.7537865 L148.095634,27.6195844 C148.334719,27.8626277 148.656965,28 149,28 C149.33264,28 149.665281,27.8626277 149.904366,27.6195844 L158.62578,18.7537865 C159.12474,18.2465657 159.12474,17.4328989 158.62578,16.9256781 C158.126819,16.4184572 157.326403,16.4184572 156.827443,16.9256781 L150.278586,23.5829517 L150.278586,-0.700246566 C150.268191,-1.41880944 149.706861,-2 149,-2 Z" id="Shape" transform="translate(149.000000, 13.000000) rotate(-90.000000) translate(-149.000000, -13.000000) "></path>
            </g>
        </g>
    </g>
</svg>
