<?xml version="1.0" encoding="UTF-8"?>
<svg width="106px" height="45px" viewBox="0 0 106 45" version="1.1" xmlns="http://www.w3.org/2000/svg" xmlns:xlink="http://www.w3.org/1999/xlink">
    <!-- Generator: Sketch 48.1 (47250) - http://www.bohemiancoding.com/sketch -->
    <title>arrow_blue</title>
    <desc>Created with Sketch.</desc>
    <defs></defs>
    <g id="Portfolio-02-b" stroke="none" stroke-width="1" fill="none" fill-rule="evenodd" transform="translate(-688.000000, -4586.000000)">
        <g id="devices" transform="translate(0.000000, 3841.000000)">
            <g id="arrow_blue" transform="translate(738.500000, 761.500000) scale(1, -1) rotate(21.000000) translate(-738.500000, -761.500000) translate(687.000000, 729.000000)">
                <path d="M45.398741,7.42214709 C56.3969172,3.18152134 65.4203199,1.04105272 72.4689493,1.00074122 C83.0418932,0.940273968 96.5743215,4.57675993 102.975405,12.8863348 C103.876636,14.0562681 79.8987774,-9.0244047 49.3339133,15.4783282 C28.9573373,31.8134835 27.6456131,29.1280898 45.398741,7.42214709 Z" id="Path-10" fill="#0A8ECB"></path>
                <path d="M73.6251481,1.06103503 C76.3073265,1.18471378 78.9308907,1.49336167 82,1.95957092 C68.7976177,1.95957092 60.1977781,7.54136609 51.5653091,14.2109103 C51.1290443,14.9660177 50.6213715,15.2283643 47.2013795,18.0735398 C43.3427247,21.6074328 39.7916226,25.5377778 36.632303,29.7929231 C35.844706,30.858832 35.085556,31.9464158 34.3402943,33.045503 C33.6162359,34.1582792 32.9081132,35.2828641 32.2301851,36.4271951 C30.8614585,38.7061897 29.6342358,41.0829234 28.5382052,43.5040666 L27.9452249,45.0760731 C27.8486899,45.3432026 27.7329507,45.5960148 27.6911624,45.846719 C27.6443343,46.1035771 27.6476575,46.3695991 27.7042194,46.6257923 C27.8160623,47.1384086 28.1339276,47.6025907 28.5681596,47.8836991 C28.6775526,47.9531533 28.7912788,48.0134849 28.9101641,48.0627961 L29.3011562,48.2176191 L30.0888389,48.5231464 C32.1966236,49.3205596 34.2919597,50.1488753 36.41023,50.9203143 C36.6050313,50.9913903 36.7088438,51.2074708 36.6424611,51.4036417 C36.6108497,51.496531 36.5467448,51.5680681 36.4669186,51.6103964 C34.4233772,52.6855447 32.4076103,53.7548982 30.4007399,54.8428424 L24.3709809,58.0867835 C22.3578601,59.1609108 20.3590721,60.2659768 18.3331874,61.3145363 C16.3140678,62.3761474 14.2927572,63.4346526 12.2551263,64.4594804 C11.5871852,64.7951631 10.7665933,64.5141182 10.4218354,63.8320219 C10.4107158,63.8097031 10.3889712,63.7603108 10.3566015,63.6838451 L9.03741723,60.4451228 L7.75161006,57.19462 L5.17974422,50.6923135 C4.31538034,48.5273598 3.49941794,46.3446975 2.65715375,44.1713341 C1.82524508,41.9946307 0.975187334,39.8241472 0.163941777,37.6398304 C-0.143234497,36.812091 0.250114699,35.9378348 1.03042854,35.6541132 C1.39538509,35.5214208 1.78320711,35.5426288 2.1202764,35.6831778 L7.29618372,37.8526599 L8.59025033,38.3949806 L9.23748719,38.6665082 L9.39906594,38.7343979 C9.56018964,38.8006196 9.59666893,38.8096814 9.63268143,38.8204421 C9.91990651,38.8930916 10.2697534,38.7466925 10.4031249,38.4596243 L10.5010751,38.2272336 L10.6323483,37.8957243 L10.8954573,37.232874 C11.0727908,36.7913454 11.2312687,36.3530681 11.4657916,35.8995208 C11.8979882,35.0013309 12.3295803,34.1884438 12.7856529,33.3451853 C13.7008887,31.6828777 14.6821889,30.0626771 15.7445554,28.4997898 C17.8537005,25.3653744 20.2331627,22.4238706 22.8702568,19.7447157 C24.1765557,18.3932059 25.5722441,17.1351995 26.9844797,15.9045041 C28.4280364,14.7082918 29.8952402,13.5445759 31.4333732,12.4817159 C37.5591569,8.19133784 44.4276095,5.05951332 51.6338219,3.19259639 C55.2385688,2.26590919 58.915453,1.59302213 62.6365356,1.22686532 C66.3584932,0.874144804 70.112123,0.778452845 73.870762,0.920485908 C73.9054998,0.921813704 73.8183275,0.970127432 73.6251481,1.06103503 Z" id="Combined-Shape" fill="#29B6F6"></path>
            </g>
        </g>
    </g>
</svg>