<?xml version="1.0" encoding="UTF-8"?>
<svg width="30px" height="20px" viewBox="0 0 30 20" version="1.1" xmlns="http://www.w3.org/2000/svg" xmlns:xlink="http://www.w3.org/1999/xlink">
    <!-- Generator: Sketch 47.1 (45422) - http://www.bohemiancoding.com/sketch -->
    <title>Shape</title>
    <desc>Created with Sketch.</desc>
    <defs></defs>
    <g id="Portfolio" stroke="none" stroke-width="1" fill="none" fill-rule="evenodd">
        <g id="Portfolio-01-d" transform="translate(-1179.000000, -422.000000)" fill="#333333">
            <g id="link" transform="translate(1045.000000, 418.000000)">
                <path d="M149,-1 C148.293139,-1 147.721414,-0.41880944 147.721414,0.299753434 L147.721414,24.5829517 L141.172557,17.9256781 C140.673597,17.4184572 139.873181,17.4184572 139.37422,17.9256781 C138.87526,18.4328989 138.87526,19.2465657 139.37422,19.7537865 L148.095634,28.6195844 C148.334719,28.8626277 148.656965,29 149,29 C149.33264,29 149.665281,28.8626277 149.904366,28.6195844 L158.62578,19.7537865 C159.12474,19.2465657 159.12474,18.4328989 158.62578,17.9256781 C158.126819,17.4184572 157.326403,17.4184572 156.827443,17.9256781 L150.278586,24.5829517 L150.278586,0.299753434 C150.268191,-0.41880944 149.706861,-1 149,-1 Z" id="Shape" transform="translate(149.000000, 14.000000) rotate(-90.000000) translate(-149.000000, -14.000000) "></path>
            </g>
        </g>
    </g>
</svg>