<?xml version="1.0" encoding="UTF-8"?>
<svg width="1380px" height="770px" viewBox="0 0 1380 770" version="1.1" xmlns="http://www.w3.org/2000/svg" xmlns:xlink="http://www.w3.org/1999/xlink">
    <!-- Generator: Sketch 48.1 (47250) - http://www.bohemiancoding.com/sketch -->
    <title>Background_red</title>
    <desc>Created with Sketch.</desc>
    <defs>
        <linearGradient x1="50.8191407%" y1="4.96484375%" x2="50.8191407%" y2="95.5117188%" id="linearGradient-1">
            <stop stop-color="#E10B25" offset="0%"></stop>
            <stop stop-color="#FA0046" offset="47.7515018%"></stop>
            <stop stop-color="#E10B25" offset="100%"></stop>
        </linearGradient>
        <rect id="path-2" x="0" y="0" width="1380" height="770"></rect>
    </defs>
    <g id="Portfolio-01-a" stroke="none" stroke-width="1" fill="none" fill-rule="evenodd" transform="translate(-30.000000, -30.000000)">
        <g id="Background_red" transform="translate(30.000000, 30.000000)">
            <rect id="red" fill="url(#linearGradient-1)" x="0" y="0" width="1380" height="770"></rect>
            <g id="background_word">
                <mask id="mask-3" fill="white">
                    <use xlink:href="#path-2"></use>
                </mask>
                <g id="Mask"></g>
                <path d="M37.1640625,333.414062 C37.1640625,323.387971 33.6159209,315.575549 26.5195312,309.976562 C19.4231416,304.377576 6.95581836,298.583363 -10.8828125,292.59375 C-28.7214434,286.604137 -43.3046309,280.809924 -54.6328125,275.210938 C-91.4819551,257.111889 -109.90625,232.242346 -109.90625,200.601562 C-109.90625,184.846275 -105.316452,170.946675 -96.1367188,158.902344 C-86.9569854,146.858013 -73.968834,137.483106 -57.171875,130.777344 C-40.374916,124.071581 -21.4948965,120.71875 -0.53125,120.71875 C19.9115605,120.71875 38.2382002,124.364547 54.4492187,131.65625 C70.6602373,138.947953 83.2577676,149.331964 92.2421875,162.808594 C101.226607,176.285224 105.71875,191.682205 105.71875,209 L37.359375,209 C37.359375,197.4114 33.8112334,188.427115 26.7148438,182.046875 C19.6184541,175.666635 10.0156855,172.476562 -2.09375,172.476562 C-14.3333945,172.476562 -24.0012666,175.178358 -31.0976563,180.582031 C-38.1940459,185.985704 -41.7421875,192.854125 -41.7421875,201.1875 C-41.7421875,208.479203 -37.8359766,215.08721 -30.0234375,221.011719 C-22.2108984,226.936228 -8.47405664,233.055958 11.1875,239.371094 C30.8490566,245.686229 46.9947285,252.489547 59.625,259.78125 C90.3543203,277.489672 105.71875,301.90349 105.71875,333.023438 C105.71875,357.893354 96.3438437,377.424408 77.59375,391.617188 C58.8436562,405.809967 33.1277676,412.90625 0.4453125,412.90625 C-22.6016777,412.90625 -43.4673545,408.772177 -62.1523438,400.503906 C-80.837333,392.235636 -94.8996924,380.907624 -104.339844,366.519531 C-113.779995,352.131438 -118.5,335.562594 -118.5,316.8125 L-49.75,316.8125 C-49.75,332.046951 -45.8112373,343.277308 -37.9335938,350.503906 C-30.0559502,357.730505 -17.2631094,361.34375 0.4453125,361.34375 C11.7734941,361.34375 20.7252275,358.902368 27.3007812,354.019531 C33.876335,349.136694 37.1640625,342.268273 37.1640625,333.414062 Z M365.783854,177.554688 L280.432291,177.554688 L280.432291,409 L211.877604,409 L211.877604,177.554688 L128.088541,177.554688 L128.088541,124.625 L365.783854,124.625 L365.783854,177.554688 Z M502.020833,308.609375 L464.911458,308.609375 L464.911458,409 L396.35677,409 L396.35677,124.625 L508.270833,124.625 C541.994959,124.625 568.361883,132.111904 587.372395,147.085938 C606.382907,162.059971 615.88802,183.218613 615.88802,210.5625 C615.88802,230.354266 611.884154,246.760352 603.876301,259.78125 C595.868449,272.802148 583.336022,283.348918 566.278645,291.421875 L625.653645,406.070312 L625.653645,409 L552.216145,409 L502.020833,308.609375 Z M464.911458,255.679687 L508.270833,255.679687 C521.291731,255.679687 531.08981,252.261753 537.665364,245.425781 C544.240917,238.58981 547.528645,229.052145 547.528645,216.8125 C547.528645,204.572855 544.208366,194.970087 537.567708,188.003906 C530.927049,181.037726 521.161522,177.554688 508.270833,177.554688 L464.911458,177.554688 L464.911458,255.679687 Z M835.328124,288.492188 L727.515624,288.492188 L727.515624,356.265625 L854.859374,356.265625 L854.859374,409 L658.960936,409 L658.960936,124.625 L855.249999,124.625 L855.249999,177.554688 L727.515624,177.554688 L727.515624,237.515625 L835.328124,237.515625 L835.328124,288.492188 Z M1045.97917,355.875 L952.033853,355.875 L935.627603,409 L862.385415,409 L966.68229,124.625 L1031.13542,124.625 L1136.21354,409 L1062.58073,409 L1045.97917,355.875 Z M968.440103,302.945312 L1029.57292,302.945312 L998.908853,204.3125 L968.440103,302.945312 Z M1248.62239,124.625 L1312.09896,322.476562 L1375.38021,124.625 L1465.61458,124.625 L1465.61458,409 L1396.86458,409 L1396.86458,342.59375 L1403.50521,206.65625 L1334.75521,409 L1289.44271,409 L1220.49739,206.460938 L1227.13802,342.59375 L1227.13802,409 L1158.58333,409 L1158.58333,124.625 L1248.62239,124.625 Z M1583.88281,409 L1515.52344,409 L1515.52344,124.625 L1583.88281,124.625 L1583.88281,409 Z M1870.70573,409 L1802.54166,409 L1701.76041,232.046875 L1701.76041,409 L1633.20573,409 L1633.20573,124.625 L1701.76041,124.625 L1802.34635,301.578125 L1802.34635,124.625 L1870.70573,124.625 L1870.70573,409 Z M2148.54427,373.84375 C2137.99734,385.562559 2122.56781,395.002568 2102.25521,402.164062 C2081.9426,409.325557 2059.6772,412.90625 2035.45833,412.90625 C1998.21856,412.90625 1968.46625,401.513135 1946.20052,378.726562 C1923.93478,355.93999 1912.02084,324.234578 1910.45833,283.609375 L1910.26302,259 C1910.26302,231.005068 1915.21088,206.558698 1925.10677,185.660156 C1935.00265,164.761614 1949.16267,148.681046 1967.58724,137.417969 C1986.01181,126.154892 2007.33321,120.523438 2031.55208,120.523438 C2066.96892,120.523438 2094.47516,128.628825 2114.07161,144.839844 C2133.66806,161.050862 2145.09373,185.236818 2148.34896,217.398438 L2082.33333,217.398438 C2079.98957,201.512941 2074.91149,190.18493 2067.09896,183.414062 C2059.28642,176.643195 2048.21882,173.257812 2033.89583,173.257812 C2016.70824,173.257812 2003.42713,180.549406 1994.05208,195.132812 C1984.67703,209.716219 1979.92448,230.549344 1979.79427,257.632812 L1979.79427,274.820312 C1979.79427,303.205871 1984.64448,324.527272 1994.34505,338.785156 C2004.04562,353.04304 2019.31239,360.171875 2040.14583,360.171875 C2057.98446,360.171875 2071.26558,356.200561 2079.98958,348.257812 L2079.98958,304.117188 L2032.33333,304.117188 L2032.33333,257.046875 L2148.54427,257.046875 L2148.54427,373.84375 Z" id="STREAMING" fill="#FFFFFF" opacity="0.100000001" mask="url(#mask-3)"></path>
            </g>
        </g>
    </g>
</svg>