<?xml version="1.0" encoding="UTF-8"?>
<svg width="148px" height="160px" viewBox="0 0 148 160" version="1.1" xmlns="http://www.w3.org/2000/svg" xmlns:xlink="http://www.w3.org/1999/xlink">
    <!-- Generator: Sketch 48.1 (47250) - http://www.bohemiancoding.com/sketch -->
    <title>color_blue</title>
    <desc>Created with Sketch.</desc>
    <defs>
        <radialGradient cx="37.2864804%" cy="14.2292668%" fx="37.2864804%" fy="14.2292668%" r="156.5206%" gradientTransform="translate(0.372865,0.142293),scale(1.000000,0.907692),rotate(54.078116),translate(-0.372865,-0.142293)" id="radialGradient-1">
            <stop stop-color="#29B6F6" offset="0%"></stop>
            <stop stop-color="#026BAA" offset="100%"></stop>
        </radialGradient>
        <path d="M83.9641382,70.0635325 C79.033347,67.3121558 70.9656226,67.3121558 66.0353466,70.0635325 L24.9641382,92.9816492 C20.0338622,95.7325163 16,102.564329 16,108.163908 L16,157.836984 C16,163.436053 20.0338622,170.267866 24.9641382,173.019243 L66.0353466,195.93685 C70.9656226,198.687717 79.033347,198.687717 83.9641382,195.93685 L125.035862,173.019243 C129.966138,170.267866 134,163.436053 134,157.836984 L134,108.163908 C134,102.564329 129.966138,95.7325163 125.035862,92.9816492 L83.9641382,70.0635325" id="path-2"></path>
        <filter x="-19.1%" y="-17.3%" width="138.1%" height="134.6%" filterUnits="objectBoundingBox" id="filter-3">
            <feOffset dx="0" dy="0" in="SourceAlpha" result="shadowOffsetOuter1"></feOffset>
            <feGaussianBlur stdDeviation="7.5" in="shadowOffsetOuter1" result="shadowBlurOuter1"></feGaussianBlur>
            <feColorMatrix values="0 0 0 0 0   0 0 0 0 0   0 0 0 0 0  0 0 0 0.15 0" type="matrix" in="shadowBlurOuter1"></feColorMatrix>
        </filter>
    </defs>
    <g id="Portfolio-02-a" stroke="none" stroke-width="1" fill="none" fill-rule="evenodd" transform="translate(-536.000000, -2138.000000)">
        <g id="brand_colors" transform="translate(285.000000, 2085.000000)">
            <g id="secondary" transform="translate(250.000000, 0.000000)">
                <g id="color_blue">
                    <use fill="black" fill-opacity="1" filter="url(#filter-3)" xlink:href="#path-2"></use>
                    <use fill="url(#radialGradient-1)" fill-rule="evenodd" xlink:href="#path-2"></use>
                </g>
            </g>
        </g>
    </g>
</svg>