<?xml version="1.0" encoding="UTF-8"?>
<svg width="32px" height="40px" viewBox="0 0 32 40" version="1.1" xmlns="http://www.w3.org/2000/svg" xmlns:xlink="http://www.w3.org/1999/xlink">
    <!-- Generator: Sketch 48.1 (47250) - http://www.bohemiancoding.com/sketch -->
    <title>cv</title>
    <desc>Created with Sketch.</desc>
    <defs></defs>
    <g id="Portfolio-03" stroke="none" stroke-width="1" fill="none" fill-rule="evenodd" transform="translate(-1103.000000, -536.000000)">
        <g id="cv" transform="translate(1103.000000, 536.000000)">
            <path d="M15.6045801,22.258517 C15.5792959,22.8000472 15.4312045,23.2783324 15.1603016,23.6933868 C14.8893986,24.1084412 14.5092372,24.4299699 14.019806,24.6579826 C13.5303747,24.8859954 12.9714201,25 12.3429253,25 C11.3062701,25 10.4899616,24.6668927 9.89397516,24.000668 C9.29798874,23.3344433 9,22.393905 9,21.1790247 L9,20.7942552 C9,20.0318376 9.13454643,19.3647323 9.40364333,18.7929192 C9.67274023,18.221106 10.0601256,17.779338 10.565811,17.4676019 C11.0714965,17.1558657 11.656638,17 12.3212532,17 C13.2784435,17 14.0477962,17.2484945 14.6293345,17.745491 C15.2108728,18.2424875 15.5413694,18.927406 15.6208342,19.8002672 L13.7245233,19.8002672 C13.7100751,19.3264283 13.5890736,18.9861956 13.3615152,18.7795591 C13.1339567,18.5729226 12.7872062,18.4696059 12.3212532,18.4696059 C11.8480761,18.4696059 11.5013255,18.6441755 11.2809912,18.99332 C11.0606568,19.3424644 10.9450733,19.9000184 10.9342372,20.6659987 L10.9342372,21.2164329 C10.9342372,22.0465417 11.0398877,22.6397221 11.251192,22.995992 C11.4624963,23.3522619 11.8264037,23.5303941 12.3429253,23.5303941 C12.779982,23.5303941 13.1140906,23.4288587 13.3452611,23.2257849 C13.5764316,23.0227111 13.6992391,22.7002917 13.7136872,22.258517 L15.6045801,22.258517 Z M20.3049027,22.7768871 L21.8761317,17.1122244 L24,17.1122244 L21.3451647,24.8931196 L19.2646407,24.8931196 L16.6314775,17.1122244 L18.7390916,17.1122244 L20.3049027,22.7768871 Z" id="CV" fill="#FFFFFF"></path>
            <g id="Group">
                <path d="M2.10559082,1.5 L2.10559082,38.5 L30.5,38.5 L30.5,11.6213203 L20.3786797,1.5 L2.10559082,1.5 Z" id="Rectangle" stroke="#FFFFFF" stroke-width="3"></path>
                <polygon id="Rectangle-3" fill="#FFFFFF" points="20 0 32 12 20 12"></polygon>
            </g>
        </g>
    </g>
</svg>