<?xml version="1.0" encoding="UTF-8"?>
<svg width="40px" height="39px" viewBox="0 0 40 39" version="1.1" xmlns="http://www.w3.org/2000/svg" xmlns:xlink="http://www.w3.org/1999/xlink">
    <!-- Generator: Sketch 48.1 (47250) - http://www.bohemiancoding.com/sketch -->
    <title>dribbble</title>
    <desc>Created with Sketch.</desc>
    <defs>
        <polygon id="path-1" points="0 0.0145138055 0 38.9843938 19.6156886 38.9843938 39.2313773 38.9843938 39.2313773 0.0145138055 19.6156886 0.0145138055"></polygon>
    </defs>
    <g id="Portfolio-03" stroke="none" stroke-width="1" fill="none" fill-rule="evenodd" transform="translate(-1155.000000, -535.000000)">
        <g id="dribbble" transform="translate(1155.000000, 535.000000)">
            <g id="Group-5">
                <mask id="mask-2" fill="white">
                    <use xlink:href="#path-1"></use>
                </mask>
                <g id="Clip-4" opacity="0.5"></g>
                <path d="M32.5804345,8.99114646 C32.2279641,9.46359424 29.4235326,13.0451176 23.2323345,15.5597827 C23.6154525,16.3522989 23.9985704,17.1600468 24.3510408,17.9677791 C24.473631,18.2573529 24.5962369,18.5469268 24.7188271,18.8212533 C30.2970427,18.1201897 35.8292792,19.2479904 36.3809822,19.3546747 C36.335003,15.4378667 34.9251214,11.82588 32.5804345,8.99114646 M15.69255,3.33692677 C16.1522946,3.94655342 19.2019223,8.06148259 21.9450588,13.0755966 C27.9063767,10.8504898 30.4196486,7.49758223 30.7261399,7.07084514 C27.7684548,4.46472749 23.8759645,2.87971068 19.6156878,2.87971068 C18.267117,2.87971068 16.9491781,3.04736855 15.69255,3.33692677 M3.21819551,16.1084514 C3.96911549,16.1236831 10.8652543,16.1541621 18.7115301,14.0814658 C15.9377461,9.17403601 12.9340976,5.05910684 12.5050004,4.46472749 C7.80029502,6.65935534 4.30625427,10.9571741 3.21819551,16.1084514 M7.17198095,30.6478511 C7.5550989,30.0077611 12.15253,22.4484874 20.7956893,19.6594802 C21.0102221,19.5832749 21.2401023,19.5223169 21.4546666,19.4613433 C21.0408854,18.5164478 20.5811564,17.5715366 20.0907641,16.6418571 C11.7234329,19.1260588 3.60131347,19.0193745 2.86572511,19.0041429 C2.86572511,19.1717851 2.85040918,19.3394274 2.85040918,19.5070696 C2.86572511,23.7896411 4.49015528,27.6912017 7.17198095,30.6478511 M26.1593563,34.8389856 C25.9141445,33.3759004 24.9333757,28.285581 22.5886888,22.2198715 C22.5580413,22.2351188 22.5120621,22.2503505 22.4814145,22.2503505 C13.0260402,25.5270528 9.63925806,32.0347467 9.33276683,32.6443577 C12.167846,34.8389856 15.7385291,36.1496603 19.6156722,36.1496603 C21.9297115,36.1649076 24.1518082,35.6924598 26.1593563,34.8389856 M36.151102,22.1589136 C35.584083,21.976024 30.971336,20.619623 25.7149275,21.4426182 C27.906361,27.4168752 28.7952185,32.2938259 28.9637722,33.2996951 C32.733688,30.7850144 35.415498,26.7920168 36.151102,22.1589136 M19.6156878,38.9843938 C8.79641111,38.9843938 -1.56925515e-06,30.2516086 -1.56925515e-06,19.5070696 C-1.56925515e-06,8.74729892 8.79641111,0.0145138055 19.6156878,0.0145138055 C30.4349646,0.0145138055 39.2313773,8.74729892 39.2313773,19.4918379 C39.2313773,30.2363613 30.4349646,38.9843938 19.6156878,38.9843938" id="Fill-3" fill="#FFFFFF" mask="url(#mask-2)"></path>
            </g>
        </g>
    </g>
</svg>