<?xml version="1.0" encoding="UTF-8"?>
<svg width="747px" height="96px" viewBox="0 0 747 96" version="1.1" xmlns="http://www.w3.org/2000/svg" xmlns:xlink="http://www.w3.org/1999/xlink">
    <!-- Generator: Sketch 48.1 (47250) - http://www.bohemiancoding.com/sketch -->
    <title>HOMEPAGE</title>
    <desc>Created with Sketch.</desc>
    <defs></defs>
    <g id="Portfolio-02-d" stroke="none" stroke-width="1" fill="none" fill-rule="evenodd" transform="translate(-346.000000, -3477.000000)" opacity="0.699999988">
        <path d="M423.835593,3571.71743 L401.514622,3571.71743 L401.514622,3532.72745 L368.448885,3532.72745 L368.448885,3571.71743 L346,3571.71743 L346,3478.34669 L368.448885,3478.34669 L368.448885,3515.41283 L401.514622,3515.41283 L401.514622,3478.34669 L423.835593,3478.34669 L423.835593,3571.71743 Z M525.625195,3526.95591 C525.625195,3536.06217 523.941012,3544.12087 520.572597,3551.13226 C517.204181,3558.14366 512.418118,3563.54106 506.214264,3567.32465 C500.01041,3571.10824 492.943239,3573 485.012539,3573 C477.081839,3573 470.046647,3571.17236 463.90675,3567.51703 C457.766853,3563.86171 452.98079,3558.6353 449.548417,3551.83768 C446.116044,3545.04005 444.314609,3537.23785 444.144056,3528.43086 L444.144056,3523.17234 C444.144056,3514.02333 445.817579,3505.95394 449.164676,3498.96393 C452.511772,3491.97391 457.308495,3486.57651 463.554987,3482.77154 C469.801479,3478.96658 476.911287,3477.06413 484.884625,3477.06413 C492.772687,3477.06413 499.80788,3478.9452 505.990415,3482.70741 C512.17295,3486.46962 516.980332,3491.82428 520.412704,3498.77154 C523.845077,3505.71881 525.582557,3513.68132 525.625195,3522.65932 L525.625195,3526.95591 Z M502.792568,3523.04409 C502.792568,3513.76682 501.246957,3506.72347 498.15569,3501.91383 C495.064423,3497.10418 490.640779,3494.6994 484.884625,3494.6994 C473.628148,3494.6994 467.680212,3503.16424 467.04064,3520.09419 L466.976683,3526.95591 C466.976683,3536.10492 468.490315,3543.13758 471.517625,3548.05411 C474.544936,3552.97063 479.043195,3555.42886 485.012539,3555.42886 C490.683416,3555.42886 495.053763,3553.01338 498.123712,3548.18236 C501.19366,3543.35135 502.74993,3536.40419 502.792568,3527.34068 L502.792568,3523.04409 Z M575.417806,3478.34669 L596.203811,3543.30862 L616.925858,3478.34669 L646.473964,3478.34669 L646.473964,3571.71743 L623.961122,3571.71743 L623.961122,3549.91383 L626.135658,3505.28056 L603.622815,3571.71743 L588.784806,3571.71743 L566.208007,3505.21643 L568.382543,3549.91383 L568.382543,3571.71743 L545.933658,3571.71743 L545.933658,3478.34669 L575.417806,3478.34669 Z M727.221733,3532.1503 L691.917503,3532.1503 L691.917503,3554.40281 L733.617427,3554.40281 L733.617427,3571.71743 L669.468618,3571.71743 L669.468618,3478.34669 L733.74534,3478.34669 L733.74534,3495.72545 L691.917503,3495.72545 L691.917503,3515.41283 L727.221733,3515.41283 L727.221733,3532.1503 Z M773.944411,3540.03808 L773.944411,3571.71743 L751.495526,3571.71743 L751.495526,3478.34669 L788.654506,3478.34669 C795.775081,3478.34669 802.074777,3479.66131 807.553782,3482.29058 C813.032787,3484.91985 817.275221,3488.66063 820.281212,3493.51303 C823.287203,3498.36542 824.790176,3503.86971 824.790176,3510.02605 C824.790176,3519.13231 821.539065,3526.41079 815.036743,3531.86172 C808.534422,3537.31265 799.612519,3540.03808 788.270765,3540.03808 L773.944411,3540.03808 Z M773.944411,3522.65932 L788.654506,3522.65932 C793.0036,3522.65932 796.318668,3521.56915 798.59981,3519.38878 C800.880953,3517.20841 802.021506,3514.13028 802.021506,3510.15431 C802.021506,3505.79357 800.848974,3502.3093 798.503875,3499.7014 C796.158775,3497.09351 792.960961,3495.7682 788.910334,3495.72545 L773.944411,3495.72545 L773.944411,3522.65932 Z M886.990433,3554.27455 L856.227146,3554.27455 L850.854764,3571.71743 L826.870912,3571.71743 L861.023917,3478.34669 L882.129706,3478.34669 L916.538539,3571.71743 L892.426773,3571.71743 L886.990433,3554.27455 Z M861.599529,3536.89579 L881.618051,3536.89579 L871.576811,3504.51102 L861.599529,3536.89579 Z M1006.94381,3560.17435 C1003.49011,3564.02206 998.437566,3567.12156 991.786011,3569.47295 C985.134456,3571.82433 977.843438,3573 969.912738,3573 C957.718221,3573 947.975545,3569.25922 940.684418,3561.77756 C933.39329,3554.29589 929.491956,3543.88584 928.980298,3530.54709 L928.916341,3522.46693 C928.916341,3513.27517 930.536567,3505.24853 933.777068,3498.38677 C937.017569,3491.52502 941.654401,3486.24518 947.687702,3482.54709 C953.721004,3478.84901 960.7029,3477 968.633599,3477 C980.231182,3477 989.238361,3479.6613 995.655406,3484.98397 C1002.07245,3490.30664 1005.81389,3498.24778 1006.87985,3508.80762 L985.262403,3508.80762 C984.494916,3503.59182 982.832052,3499.87242 980.273762,3497.6493 C977.715472,3495.42617 974.091282,3494.31463 969.401083,3494.31463 C963.772844,3494.31463 959.423816,3496.70873 956.353867,3501.49699 C953.283919,3506.28526 951.727649,3513.12554 951.685011,3522.01804 L951.685011,3527.66132 C951.685011,3536.98134 953.273259,3543.98194 956.449803,3548.66333 C959.626347,3553.34471 964.625597,3555.68537 971.447705,3555.68537 C977.289134,3555.68537 981.638163,3554.38144 984.49492,3551.77355 L984.49492,3537.28056 L968.889427,3537.28056 L968.889427,3521.82565 L1006.94381,3521.82565 L1006.94381,3560.17435 Z M1086.47639,3532.1503 L1051.17216,3532.1503 L1051.17216,3554.40281 L1092.87209,3554.40281 L1092.87209,3571.71743 L1028.72328,3571.71743 L1028.72328,3478.34669 L1093,3478.34669 L1093,3495.72545 L1051.17216,3495.72545 L1051.17216,3515.41283 L1086.47639,3515.41283 L1086.47639,3532.1503 Z" id="HOMEPAGE" fill="#F3F3F3"></path>
    </g>
</svg>