<?xml version="1.0" encoding="UTF-8"?>
<svg width="51px" height="50px" viewBox="0 0 51 50" version="1.1" xmlns="http://www.w3.org/2000/svg" xmlns:xlink="http://www.w3.org/1999/xlink">
    <!-- Generator: Sketch 48.1 (47250) - http://www.bohemiancoding.com/sketch -->
    <title>illustrator_icon</title>
    <desc>Created with Sketch.</desc>
    <defs>
        <radialGradient cx="50%" cy="50%" fx="50%" fy="50%" r="51.8794025%" gradientTransform="translate(0.500000,0.500000),scale(0.978723,1.000000),rotate(90.000000),translate(-0.500000,-0.500000)" id="radialGradient-1">
            <stop stop-color="#423325" offset="0%"></stop>
            <stop stop-color="#1C0A00" offset="100%"></stop>
        </radialGradient>
    </defs>
    <g id="Portfolio-02-b" stroke="none" stroke-width="1" fill="none" fill-rule="evenodd" transform="translate(-968.000000, -1114.000000)">
        <g id="side_facts" transform="translate(900.000000, 837.000000)">
            <g id="illustrator_icon" transform="translate(68.000000, 277.000000)">
                <polygon id="Fill-1" fill="url(#radialGradient-1)" points="2 48 49 48 49 2 2 2"></polygon>
                <path d="M17.7012761,28.3119891 L16.0225016,34.722245 C15.9800084,34.8930752 15.9162585,34.9358033 15.7037725,34.9358033 L12.5800275,34.9358033 C12.3675414,34.9358033 12.3249667,34.8717009 12.3675414,34.6153325 L18.402525,13.3759766 C18.5087476,12.991424 18.5724975,12.6494969 18.6149906,11.6025465 C18.6149906,11.4529881 18.6787405,11.3888857 18.7849631,11.3888857 L23.247456,11.3888857 C23.3961922,11.3888857 23.4599421,11.4316343 23.5025168,11.6025465 L30.2599652,34.6580606 C30.3024583,34.8288908 30.2599652,34.9358033 30.0899927,34.9358033 L26.5624303,34.9358033 C26.3924578,34.9358033 26.2861331,34.8930752 26.243742,34.7435988 L24.5012176,28.3119891 L17.7012761,28.3119891 Z M23.6087598,24.850421 C23.0138356,22.4785929 21.6113378,17.3076765 21.0800003,14.8076642 L21.0375071,14.8076642 C20.5912375,17.3076765 19.4650369,21.5383703 18.5725791,24.850421 L23.6087598,24.850421 Z M33.1712445,12.9700497 C33.1712445,11.6025465 34.1274522,10.7905902 35.3388023,10.7905902 C36.635057,10.7905902 37.506258,11.6666284 37.506258,12.9700497 C37.506258,14.380281 36.5925639,15.1494887 35.2963091,15.1494887 C34.0637227,15.1495913 33.1712445,14.380281 33.1712445,12.9700497 Z M33.404967,17.8205159 C33.404967,17.6495831 33.4687169,17.5640449 33.6600277,17.5640449 L36.9962588,17.5640449 C37.1661293,17.5640449 37.2512176,17.6281268 37.2512176,17.8205159 L37.2512176,34.6795169 C37.2512176,34.8503472 37.2087245,34.9358853 36.9962588,34.9358853 L33.7025209,34.9358853 C33.4900348,34.9358853 33.4262033,34.8290754 33.4262033,34.6581427 L33.4262033,17.8204954 L33.404967,17.8204954 L33.404967,17.8205159 Z M0,50 L51,50 L51,0 L0,0 L0,50 Z M3.124983,46.863207 L47.8750374,46.863207 L47.8750374,3.13671094 L3.124983,3.13671094 L3.124983,46.863207 Z" id="Fill-4" fill="#FF7F18"></path>
            </g>
        </g>
    </g>
</svg>