<?xml version="1.0" encoding="UTF-8"?>
<svg width="51px" height="50px" viewBox="0 0 51 50" version="1.1" xmlns="http://www.w3.org/2000/svg" xmlns:xlink="http://www.w3.org/1999/xlink">
    <!-- Generator: Sketch 48.1 (47250) - http://www.bohemiancoding.com/sketch -->
    <title>indesign_icon</title>
    <desc>Created with Sketch.</desc>
    <defs>
        <radialGradient cx="51.7256796%" cy="50%" fx="51.7256796%" fy="50%" r="51.7762031%" gradientTransform="translate(0.517257,0.500000),scale(0.978723,1.000000),rotate(91.951489),translate(-0.517257,-0.500000)" id="radialGradient-1">
            <stop stop-color="#4B2B36" offset="0%"></stop>
            <stop stop-color="#250012" offset="100%"></stop>
        </radialGradient>
    </defs>
    <g id="Portfolio-02-b" stroke="none" stroke-width="1" fill="none" fill-rule="evenodd" transform="translate(-1036.000000, -1114.000000)">
        <g id="side_facts" transform="translate(900.000000, 837.000000)">
            <g id="indesign_icon" transform="translate(136.000000, 277.000000)">
                <polygon id="Fill-1" fill="url(#radialGradient-1)" points="2 48 49 48 49 2 2 2"></polygon>
                <path d="M18.6575653,34.6581427 C18.6575653,34.8717009 18.6150722,34.9358853 18.3812682,34.9358853 L15.108787,34.9358853 C14.8963214,34.9358853 14.8324899,34.8290549 14.8324899,34.6581427 L14.8324899,11.7093564 C14.8324899,11.4957161 14.9387125,11.4315317 15.108787,11.4315317 L18.402525,11.4315317 C18.5724975,11.4315317 18.6575653,11.4956341 18.6575653,11.6880027 L18.6575653,34.6581427 Z M31.1311866,17.2863022 C31.5774563,17.2863022 31.8325171,17.2863022 32.2574484,17.3290303 L32.2574484,11.6452746 C32.2574484,11.4957161 32.3636914,11.4316343 32.4698324,11.4316343 L35.9123881,11.4316343 C36.0823607,11.4316343 36.1248538,11.4957161 36.1248538,11.6025465 L36.1248538,31.5812092 C36.1248538,32.1794226 36.1248538,32.9273586 36.2310968,33.7392944 C36.2310968,33.8888529 36.1886037,33.9102067 36.0398675,33.9957448 C34.2123569,34.871783 32.2787052,35.2564381 30.4724308,35.2564381 C25.7762156,35.2564381 22.4186461,32.3291452 22.4186461,26.3675442 C22.3974914,21.2606277 25.7549792,17.2863022 31.1311866,17.2863022 Z M32.25753,20.7691626 C31.9387397,20.6196246 31.5137064,20.5555223 31.0037072,20.5555223 C28.262482,20.5555223 26.3499646,22.6709615 26.3499646,26.1965499 C26.3499646,30.2136239 28.3049751,31.8374955 30.74883,31.8374955 C31.2800044,31.8374955 31.8325171,31.7734137 32.25753,31.5811271 L32.25753,20.7691626 Z M0,50 L51,50 L51,0 L0,0 L0,50 Z M3.124983,46.863207 L47.8750374,46.863207 L47.8750374,3.13671094 L3.124983,3.13671094 L3.124983,46.863207 Z" id="Fill-4" fill="#FF408C"></path>
            </g>
        </g>
    </g>
</svg>