<?xml version="1.0" encoding="UTF-8"?>
<svg width="50px" height="50px" viewBox="0 0 50 50" version="1.1" xmlns="http://www.w3.org/2000/svg" xmlns:xlink="http://www.w3.org/1999/xlink">
    <!-- Generator: Sketch 48.1 (47250) - http://www.bohemiancoding.com/sketch -->
    <title>InVision</title>
    <desc>Created with Sketch.</desc>
    <defs></defs>
    <g id="Portfolio-02-a" stroke="none" stroke-width="1" fill="none" fill-rule="evenodd" transform="translate(-972.000000, -1114.000000)">
        <g id="side_facts" transform="translate(900.000000, 837.000000)">
            <g id="InVision" transform="translate(72.000000, 277.000000)">
                <path d="M45.467382,0 L4.532622,0 C2.029302,0 1.99999999e-06,2.0293 1.99999999e-06,4.53262 L1.99999999e-06,45.46738 C1.99999999e-06,47.9707 2.029302,50 4.532622,50 L45.467382,50 C47.970702,50 50.000002,47.9707 50.000002,45.46738 L50.000002,4.53262 C50.000002,2.0293 47.970702,0 45.467382,0" id="Fill-1" fill="#DC395F"></path>
                <path d="M10.394311,31.8487428 C10.2152526,32.6136366 10.1254341,33.4395472 10.1254341,34.1132964 C10.1254341,36.7680692 11.5592182,38.5304659 14.6061838,38.5304659 C17.1331518,38.5304659 19.1818194,37.023775 20.6569015,34.5907941 L19.7561829,38.2201736 L24.7740878,38.2201736 L27.6420149,26.670806 C28.3589668,23.7466256 29.7479413,22.228797 31.8540872,22.228797 C33.5118987,22.228797 34.5423773,23.2640198 34.5423773,24.9729917 C34.5423773,25.4681174 34.4975678,26.0074333 34.3183099,26.5925418 L32.8395368,31.901166 C32.6154894,32.6660598 32.5262495,33.4313342 32.5262495,34.1506356 C32.5262495,36.670855 34.004444,38.5142001 37.096239,38.5142001 C39.7398992,38.5142001 41.8456461,36.8054285 43.0107527,32.7112515 L41.0394343,31.9471389 C40.0535856,34.6899715 39.2021654,35.1858785 38.5300031,35.1858785 C37.8578408,35.1858785 37.4993449,34.7363251 37.4993449,33.837058 C37.4993449,33.4321154 37.5893429,32.9827624 37.7233923,32.4416837 L39.1575554,27.2697965 C39.5158518,26.0553694 39.6504798,24.9784604 39.6504798,23.9890103 C39.6504798,20.1199705 37.3202865,18.1007462 34.4975678,18.1007462 C31.8540872,18.1007462 29.165398,20.4949856 27.8214524,23.0148043 L28.8069021,18.4920071 L21.145337,18.4920071 L20.0698693,22.4756688 L23.6545687,22.4756688 L21.4471327,31.34913 C19.7137076,35.2181497 16.5295803,35.2809493 16.1299658,35.1911468 C15.4737841,35.0424909 15.0540991,34.7922739 15.0540991,33.9362354 C15.0540991,33.4422916 15.1437181,32.7327656 15.3677855,31.8773081 L18.728637,18.4920071 L10.2152526,18.4920071 L9.13978495,22.4756688 L12.6792759,22.4756688 L10.3945106,31.8487428 M16.7119306,15.705946 C18.3699616,15.705946 19.7589161,14.4011354 19.7589161,12.6910016 C19.7589161,10.9820296 18.3699616,9.67741935 16.7119306,9.67741935 C15.0539196,9.67741935 13.6653441,10.9820296 13.6653441,12.6910016 C13.6653441,14.4009351 15.0539196,15.705946 16.7119306,15.705946" id="Fill-4" fill="#FFFFFF"></path>
            </g>
        </g>
    </g>
</svg>