<?xml version="1.0" encoding="UTF-8"?>
<svg width="40px" height="38px" viewBox="0 0 40 38" version="1.1" xmlns="http://www.w3.org/2000/svg" xmlns:xlink="http://www.w3.org/1999/xlink">
    <!-- Generator: Sketch 48.1 (47250) - http://www.bohemiancoding.com/sketch -->
    <title>linkedin</title>
    <desc>Created with Sketch.</desc>
    <defs></defs>
    <g id="Portfolio-03" stroke="none" stroke-width="1" fill="none" fill-rule="evenodd" transform="translate(-991.000000, -532.000000)">
        <g id="linkedin" transform="translate(991.000000, 531.000000)" fill="#FFFFFF">
            <path d="M39.2611889,38.2811174 L30.8479523,38.2811174 L30.8479523,24.8239292 C30.8479523,21.4414325 29.6298024,19.1346759 26.5859096,19.1346759 C24.261136,19.1346759 22.8767555,20.6902995 22.2686544,22.193407 C22.046703,22.729678 21.9914904,23.4823259 21.9914904,24.2334588 L21.9914904,38.2811174 L13.5783384,38.2811174 L13.5783384,38.2818748 L13.5783384,38.2811174 C13.5786772,38.2179128 13.6885097,15.4807613 13.5791006,13.1239292 L21.9922525,13.1239292 L21.9922525,16.6858563 C23.1103083,14.9718425 25.1112581,12.5334588 29.5753519,12.5334588 C35.1108417,12.5334588 39.2611889,16.1293025 39.2611889,23.8564195 L39.2611889,38.2811174 Z M4.71594876,9.68891627 L4.71518663,9.68891627 L4.66073613,9.68891627 C1.83684708,9.68891627 0.0111888841,7.75701079 0.0111888841,5.34269702 C0.0111888841,2.8736789 1.89189035,0.995804489 4.77183885,0.995804489 C7.64941626,0.995804489 9.42062396,2.8736789 9.4758366,5.34269702 C9.4758366,7.75701079 7.64941626,9.68891627 4.71594876,9.68891627 Z M0.507509804,38.2811174 L8.92133918,38.2811174 L8.92133918,13.1231718 L0.507509804,13.1231718 L0.507509804,38.2811174 Z" id="Fill-1"></path>
        </g>
    </g>
</svg>