<?xml version="1.0" encoding="UTF-8"?>
<svg width="70px" height="40px" viewBox="0 0 70 40" version="1.1" xmlns="http://www.w3.org/2000/svg" xmlns:xlink="http://www.w3.org/1999/xlink">
    <!-- Generator: Sketch 47.1 (45422) - http://www.bohemiancoding.com/sketch -->
    <title>Logo_white-black</title>
    <desc>Created with Sketch.</desc>
    <defs></defs>
    <g id="Page-1" stroke="none" stroke-width="1" fill="none" fill-rule="evenodd">
        <g id="Portfolio-01-a" transform="translate(-60.000000, -60.000000)">
            <g id="Logo_white-black" transform="translate(60.000000, 60.000000)">
                <polygon id="Fill-1" fill="#333333" points="67.9032959 0 67.9032959 37.1168293 50.5348591 0 38.3136095 0 38.3952484 0.258292683 38.3952484 40 39.8708967 40 39.8708967 3.17780488 57.1574486 40 68.001656 40 69.3786982 40 69.3786982 0"></polygon>
                <polygon id="Fill-2" fill="#FFFFFF" points="18.9945611 0 19.0336166 0.167560976 19.0336166 14.317561 12.2851748 0 0 0 0 40 1.4831197 40 1.4831197 3.00512195 18.9426519 40 19.0336166 40 20.4176145 40 31.2278267 40 20.2693025 17.237561 20.2693025 3.08634146 37.941168 40 50.2218935 40 31.2794887 0"></polygon>
            </g>
        </g>
    </g>
</svg>
