<?xml version="1.0" encoding="UTF-8"?>
<svg width="52px" height="50px" viewBox="0 0 52 50" version="1.1" xmlns="http://www.w3.org/2000/svg" xmlns:xlink="http://www.w3.org/1999/xlink">
    <!-- Generator: Sketch 48.1 (47250) - http://www.bohemiancoding.com/sketch -->
    <title>photoshop_icon</title>
    <desc>Created with Sketch.</desc>
    <defs>
        <radialGradient cx="50%" cy="50%" fx="50%" fy="50%" r="52.0776866%" gradientTransform="translate(0.500000,0.500000),scale(0.960000,1.000000),rotate(90.000000),translate(-0.500000,-0.500000)" id="radialGradient-1">
            <stop stop-color="#34364E" offset="0%"></stop>
            <stop stop-color="#0C0824" offset="100%"></stop>
        </radialGradient>
    </defs>
    <g id="Portfolio-02-b" stroke="none" stroke-width="1" fill="none" fill-rule="evenodd" transform="translate(-900.000000, -1114.000000)">
        <g id="side_facts" transform="translate(900.000000, 837.000000)">
            <g id="photoshop_icon" transform="translate(0.000000, 277.000000)">
                <polygon id="Fill-1" fill="url(#radialGradient-1)" points="1 49 51 49 51 1 1 1"></polygon>
                <path d="M12.5667159,11.7093564 C12.5667159,11.559798 12.8700834,11.452906 13.0433263,11.452906 C14.4300601,11.3888036 16.4883832,11.3460756 18.633359,11.3460756 C24.6350022,11.3460756 26.9749568,14.5939213 26.9749568,18.7392616 C26.9749568,24.1665668 22.9882896,26.4956464 18.0916863,26.4956464 C17.2683612,26.4956464 16.9867296,26.4529183 16.4016474,26.4529183 L16.4016474,34.6580606 C16.4016474,34.8289729 16.3366475,34.914429 16.1416686,34.914429 L12.8266947,34.914429 C12.6533686,34.914429 12.5666327,34.8503472 12.5666327,34.6580606 L12.5666327,11.7093564 L12.5667159,11.7093564 Z M16.4233001,23.0555141 C16.9216673,23.0982421 17.3116875,23.0982421 18.1783389,23.0982421 C20.7134181,23.0982421 23.096699,22.222204 23.096699,18.8247998 C23.096699,16.1111471 21.3850074,14.7435619 18.50338,14.7435619 C17.6367286,14.7435619 16.8133411,14.7862899 16.4233001,14.8076642 L16.4233001,23.0555141 Z M35.0566799,20.5127737 C33.3449674,20.5127737 32.7600308,21.3674581 32.7600308,22.0725635 C32.7600308,22.8417917 33.1500094,23.3759848 35.4467001,24.5512015 C38.8483474,26.1751961 39.9100401,27.7349654 39.9100401,30.0213374 C39.9100401,33.4400954 37.266718,35.2777099 33.6916821,35.2777099 C31.8066643,35.2777099 30.1816253,34.8930752 29.2499948,34.3589642 C29.098363,34.2948618 29.0766895,34.1880314 29.0766895,34.0170371 L29.0766895,30.8760012 C29.0766895,30.6623609 29.1850157,30.5981765 29.3367307,30.705089 C30.7017077,31.5812092 32.2616844,31.9657823 33.6916821,31.9657823 C35.403353,31.9657823 36.1183518,31.2606564 36.1183518,30.29908 C36.1183518,29.5298723 35.6200054,28.8461002 33.4316201,27.7349654 C30.3549306,26.282006 29.0766895,24.8076724 29.0766895,22.3503882 C29.0766895,19.5939459 31.265054,17.307656 35.0566799,17.307656 C36.9200033,17.307656 38.2200012,17.5854807 38.9350001,17.9059515 C39.1083262,18.0127819 39.1516526,18.1836942 39.1516526,18.3332526 L39.1516526,21.2605456 C39.1516526,21.4314784 39.0433263,21.5383703 38.8266115,21.4742064 C37.8733074,20.8760751 36.4649833,20.5127737 35.0566799,20.5127737 Z M0,50 L52,50 L52,0 L0,0 L0,50 Z M3,47 L49,47 L49,3 L3,3 L3,47 Z" id="Fill-4" fill="#31C5F0"></path>
            </g>
        </g>
    </g>
</svg>