<?xml version="1.0" encoding="UTF-8"?>
<svg width="55px" height="50px" viewBox="0 0 55 50" version="1.1" xmlns="http://www.w3.org/2000/svg" xmlns:xlink="http://www.w3.org/1999/xlink">
    <!-- Generator: Sketch 48.1 (47250) - http://www.bohemiancoding.com/sketch -->
    <title>Sketch</title>
    <desc>Created with Sketch.</desc>
    <defs></defs>
    <g id="Portfolio-02-a" stroke="none" stroke-width="1" fill="none" fill-rule="evenodd" transform="translate(-900.000000, -1114.000000)">
        <g id="side_facts" transform="translate(900.000000, 837.000000)">
            <g id="Sketch" transform="translate(0.000000, 277.000000)">
                <polygon id="Fill-1" fill="#FDB300" points="27.4998976 0 11.9998586 1.64625895 0 17.8291592 27.4998976 50 55 17.8291592 43.0001414 1.64625895"></polygon>
                <polygon id="Fill-2" fill="#EA6C00" points="0 18 27 50 10.9362713 18"></polygon>
                <polygon id="Fill-3" fill="#EA6C00" points="43.0636092 18 27 50 54 18"></polygon>
                <polygon id="Fill-4" fill="#FDAD00" points="11 18 27.5001032 50 44 18"></polygon>
                <polygon id="Fill-5" fill="#FDD231" points="27 0 11.8422106 1.66182594 11 18"></polygon>
                <polygon id="Fill-6" fill="#FDD231" points="27 0 42.1579896 1.66182594 43 18"></polygon>
                <polygon id="Fill-7" fill="#FDAD00" points="55 18 43 2 43.8612225 18"></polygon>
                <polygon id="Fill-8" fill="#FDAD00" points="0 18 11.1387775 18 12 2"></polygon>
                <polygon id="Fill-9" fill="#FEEEB7" points="27.5 0 11 18 44 18"></polygon>
            </g>
        </g>
    </g>
</svg>