<?xml version="1.0" encoding="UTF-8"?>
<svg width="38px" height="47px" viewBox="0 0 38 47" version="1.1" xmlns="http://www.w3.org/2000/svg" xmlns:xlink="http://www.w3.org/1999/xlink">
    <!-- Generator: Sketch 48.1 (47250) - http://www.bohemiancoding.com/sketch -->
    <title>xing</title>
    <desc>Created with Sketch.</desc>
    <defs></defs>
    <g id="Portfolio-03" stroke="none" stroke-width="1" fill="none" fill-rule="evenodd" transform="translate(-1048.000000, -536.000000)">
        <g id="xing" transform="translate(1048.000000, 536.000000)" fill="#FFFFFF">
            <path d="M3.43407512,9.00023771 C3.04941915,9.00023771 2.7256728,9.13966201 2.5623726,9.41234852 C2.39394934,9.6937022 2.41945835,10.0564431 2.59913819,10.4235176 L6.92074338,18.1400722 C6.92804686,18.1547004 6.92804686,18.1640624 6.92074338,18.1775568 L0.129568478,30.5392356 C-0.0474877865,30.9031101 -0.0388370599,31.2685938 0.129568478,31.5506423 C0.292638219,31.8219392 0.580044428,32 0.965161303,32 L7.35659464,32 C8.3120922,32 8.77320429,31.3348775 9.09980467,30.7268961 C9.09980467,30.7268961 15.7414177,18.6106955 16,18.1402917 C15.9738528,18.0968644 11.605945,10.2365336 11.605945,10.2365336 C11.2870913,9.65210347 10.806905,9 9.82660752,9 L3.43407512,9 L3.43407512,9.00023771 Z" id="Fill-1"></path>
            <path d="M30.3684383,0.0007144 C29.3876117,0.0007144 28.9626531,0.6385044 28.6105148,1.2918044 C28.6105148,1.2918044 14.4661671,27.1888044 14,28.0390344 C14.0239093,28.0851132 23.3288051,45.7089288 23.3288051,45.7089288 C23.6547578,46.3100588 24.157581,47 25.1634276,47 L31.7211787,47 C32.1167834,47 32.4258923,46.84631 32.5925106,46.5669044 C32.7677967,46.2778544 32.7627709,45.8955188 32.5790719,45.5192744 L23.3231237,28.0599588 C23.3142191,28.0465732 23.3142191,28.02892 23.3231237,28.0155156 L37.8596527,1.4793156 C38.0424229,1.1047444 38.0463016,0.7226156 37.8735102,0.4331144 C37.7059996,0.1539156 37.3959803,0 37.0003756,0 L30.3677463,0 L30.3677463,0.00047 L30.3684201,0.00047 L30.3684383,0.0007144 Z" id="Fill-3"></path>
        </g>
    </g>
</svg>