<?xml version="1.0" encoding="UTF-8"?>
<svg width="59px" height="46px" viewBox="0 0 59 46" version="1.1" xmlns="http://www.w3.org/2000/svg" xmlns:xlink="http://www.w3.org/1999/xlink">
    <!-- Generator: Sketch 48.1 (47250) - http://www.bohemiancoding.com/sketch -->
    <title>zeplin</title>
    <desc>Created with Sketch.</desc>
    <defs></defs>
    <g id="Portfolio-02-a" stroke="none" stroke-width="1" fill="none" fill-rule="evenodd" transform="translate(-1041.000000, -1115.000000)">
        <g id="side_facts" transform="translate(900.000000, 837.000000)">
            <g id="zeplin" transform="translate(139.000000, 277.000000)">
                <g id="Group" transform="translate(33.000000, 25.000000) rotate(-20.000000) translate(-33.000000, -25.000000) translate(4.000000, 10.000000)">
                    <polygon id="Rectangle-74" fill="#F89920" points="3.36607143 15 0 6.37168142 19.6785714 6.37168142 19.6785714 15"></polygon>
                    <polygon id="Rectangle-74-Copy" fill="#FFBE22" transform="translate(9.839286, 19.181416) scale(1, -1) translate(-9.839286, -19.181416) " points="3.36607143 23.4955752 0 14.8672566 19.6785714 14.8672566 19.6785714 23.4955752"></polygon>
                    <path d="M57.9987893,15.0132743 C57.8636894,23.3038503 46.4392836,30 32.3660714,30 C18.2928592,30 6.86845349,23.3038503 6.73335357,15.0132743 L57.9987893,15.0132743 L57.9987893,15.0132743 Z" id="Path" fill="#F0670A"></path>
                    <path d="M57.9991896,15.0132743 C57.8885103,6.7104936 46.4545734,0 32.3660714,0 C18.2775694,0 6.84363258,6.7104936 6.73295323,15.0132743 L57.9991896,15.0132743 L57.9991896,15.0132743 Z" id="Path" fill="#FFD00E"></path>
                    <path d="M57.9972255,15.0132743 C57.7934971,20.5180388 46.3960657,24.9557522 32.3660714,24.9557522 C18.3360772,24.9557522 6.93864578,20.5180388 6.73491737,15.0132743 L57.9972255,15.0132743 L57.9972255,15.0132743 Z" id="Path" fill="#F89920"></path>
                    <path d="M57.9981431,15.0132743 C57.8311287,9.49630312 46.4192319,5.04424779 32.3660714,5.04424779 C18.3129109,5.04424779 6.90101419,9.49630312 6.73399978,15.0132743 L57.9981431,15.0132743 L57.9981431,15.0132743 Z" id="Path" fill="#FFBE22"></path>
                </g>
                <path d="M37.9524559,7.80786517 C36.6823649,3.39930386 35.2368921,0.95365199 33.5947143,1.00066548 C30.4179659,1.0916118 29.3499348,11.2024858 30.3779716,24.1587318 C31.4168879,37.2520897 34.111807,47.0880942 37.4717892,46.999405 C39.4755522,46.9465142 40.6038436,43.7287224 40.9996281,38.1417885 C41.007716,38.0276193 40.881127,38.1067485 40.8886043,37.9906074 C40.8886043,37.9906074 40.8722667,37.786541 40.7969125,37.7816517 C40.6549304,37.7724393 40.3709661,37.7540144 40.3709661,37.7540144 C40.0217504,43.1781928 38.9643911,46.3038621 37.4546159,46.3437137 C34.693331,46.4165999 32.0274578,36.6866086 31.0292781,24.1066487 C30.0475499,11.7340255 31.1044906,1.72814202 33.6133393,1.65631684 C34.800788,1.62232167 36.1310172,3.87420385 37.3086534,7.93448671 C37.3086534,7.93448671 37.9531035,7.81011275 37.9524559,7.80786517 Z" id="Shape" fill="#F0670A" fill-rule="nonzero"></path>
                <path d="M22.8339601,4.24856852 C20.1348081,5.90413677 24.2354882,15.0978669 31.5605755,25.6886504 C38.9631819,36.3915129 46.1780457,43.4809629 49.0366114,41.7363308 C50.6342217,40.7612816 50.1857435,37.8014384 48.1286724,33.3329844 C48.0536783,33.1700791 47.8602535,33.098552 47.6966459,33.1732243 C47.5330384,33.2478965 47.461203,33.4404911 47.5361971,33.6033964 C49.4486468,37.7576979 49.8600159,40.4726303 48.6960121,41.183042 C46.3467988,42.6168075 39.2096974,35.6037682 32.0973514,25.320571 C25.1022276,15.2068564 21.0441286,6.10859322 23.1757937,4.8011022 C24.3078977,4.10670804 27.0000833,5.78196887 30.557557,9.40100198 C30.5971362,9.44126608 30.8250277,9.67606576 30.8755932,9.6913954 C30.9858618,9.72482492 30.9302063,9.49186513 31.0183892,9.40592478 C31.1470097,9.2805751 31.1492232,9.0751391 31.0233332,8.94707063 C27.2228904,5.08086408 24.3706571,3.30601071 22.8339601,4.24856852 Z" id="Shape" fill="#F0670A" fill-rule="nonzero"></path>
            </g>
        </g>
    </g>
</svg>