<?xml version="1.0" encoding="UTF-8"?>
<svg width="1440px" height="428px" viewBox="0 0 1440 428" version="1.1" xmlns="http://www.w3.org/2000/svg" xmlns:xlink="http://www.w3.org/1999/xlink">
    <!-- Generator: Sketch 48.1 (47250) - http://www.bohemiancoding.com/sketch -->
    <title>background_01</title>
    <desc>Created with Sketch.</desc>
    <defs>
        <path d="M1450.83538,402.92219 L1442.62281,520.36743 L0.103261795,419.496637 L28.1568419,18.3117502 C92.098441,0.229748 159.227191,-4.83473169 215.690665,7.35342341 L1205.64065,221.045744 C1298.56985,241.102015 1395.93409,316.031135 1450.83538,402.92219 Z" id="path-1"></path>
    </defs>
    <g id="Portfolio-02-a" stroke="none" stroke-width="1" fill="none" fill-rule="evenodd" transform="translate(0.000000, -1295.000000)">
        <g id="background_01" transform="translate(711.583586, 1515.627163) rotate(-4.000000) translate(-711.583586, -1515.627163) translate(-13.916414, 1255.127163)">
            <mask id="mask-2" fill="white">
                <use xlink:href="#path-1"></use>
            </mask>
            <use id="Mask" fill="#1F2326" xlink:href="#path-1"></use>
            <g id="lines" mask="url(#mask-2)" opacity="0.5">
                <g transform="translate(-413.389752, -1839.838964)" id="Page-1">
                    <g transform="translate(1701.500000, 1379.000000) rotate(15.000000) translate(-1701.500000, -1379.000000) translate(216.000000, 350.000000)">
                        <path d="M2689.67957,323.886221 C2154.12554,-368.987913 709.57608,127.117518 1446.77343,1088.77296 C2663.4623,2675.91432 -155.124626,1678.96421 7.01050153,1909.20479" id="Stroke-1" stroke="#6734BA" opacity="0.1"></path>
                        <path d="M2707.25039,306.227152 C2189.56405,-356.111539 694.058199,150.418739 1450.01963,1090.35804 C2691.72228,2638.13716 -154.04822,1660.98802 18.7860536,1918.50301" id="Stroke-3" stroke="#623EBB" opacity="0.1"></path>
                        <path d="M2724.82371,288.567833 C2225.00257,-343.232919 678.542815,173.717215 1453.26583,1091.94286 C2719.98725,2600.35976 -152.971813,1643.0066 30.5616058,1927.79848" id="Stroke-5" stroke="#5D49BB" opacity="0.200000018"></path>
                        <path d="M2742.39702,270.908514 C2260.44358,-330.356795 663.027431,197.018187 1456.51203,1093.52769 C2748.24722,2562.58236 -151.895407,1625.02767 42.3371579,1937.09394" id="Stroke-7" stroke="#5853BC" opacity="0.300000012"></path>
                        <path d="M2759.97034,253.249445 C2295.8821,-317.477925 649.27984,218.676402 1459.76072,1095.11277 C2779.3936,2522.14094 -150.819,1607.04649 54.11271,1946.38966" id="Stroke-9" stroke="#535DBD" opacity="0.300000012"></path>
                        <path d="M2777.54366,235.592623 C2331.32062,-304.601801 633.989176,241.680235 1463.00692,1096.70009 C2808.01312,2483.8916 -149.740097,1589.06756 65.8882621,1955.68763" id="Stroke-11" stroke="#4D67BE" opacity="0.400000006"></path>
                        <path d="M2795.11697,217.933304 C2366.75913,-291.725678 618.616114,264.739001 1466.25562,1098.28492 C2836.49283,2445.73966 -148.663691,1571.08613 77.6638142,1964.9831" id="Stroke-13" stroke="#4872BF"></path>
                        <path d="M2812.68779,200.273985 C2402.20264,-278.849554 603.160655,287.865185 1469.50181,1099.86974 C2864.84269,2407.69757 -147.587284,1553.1072 89.4393663,1974.27857" id="Stroke-15" stroke="#437CBF"></path>
                        <path d="M2830.26111,182.614916 C2437.64116,-265.970684 587.632786,311.064032 1472.74801,1101.45482 C2893.06771,2369.7731 -146.510878,1535.12602 101.214918,1983.57678" id="Stroke-17" stroke="#3E86C0" opacity="0.599999964"></path>
                        <path d="M2847.83442,164.955598 C2473.07968,-253.09456 572.032508,334.342531 1475.99671,1103.03965 C2921.18037,2331.97322 -145.436968,1517.14709 112.990471,1992.87225" id="Stroke-19" stroke="#3990C1" opacity="0.699999988"></path>
                        <path d="M2865.40749,147.296279 C2508.51795,-240.215939 556.364564,357.70343 1479.24266,1104.62447 C2949.18791,2294.31068 -144.360811,1499.16566 124.765773,2002.16772" id="Stroke-21" stroke="#349BC2" opacity="0.799999952"></path>
                        <path d="M2882.9808,129.63721 C2543.95896,-227.339566 540.636945,381.15447 1482.49135,1106.20955 C2977.09833,2256.78822 -143.284405,1481.18698 136.538828,2011.46594" id="Stroke-23" stroke="#2FA5C2"></path>
                        <path d="M2900.55162,111.977891 C2579.39748,-214.460945 524.854394,404.702642 1485.73755,1107.79687 C3004.92884,2219.41282 -142.207998,1463.20555 148.31438,2020.75891" id="Stroke-25" stroke="#2AAFC3"></path>
                        <path d="M2918.12494,94.3210691 C2614.83599,-201.584822 507.868346,430.013675 1488.98375,1109.3817 C3030.86172,2184.81157 -141.129095,1445.22912 160.089932,2030.05438" id="Stroke-27" stroke="#24B9C4"></path>
                        <path d="M2935.69825,76.662 C2650.27451,-188.708448 492.352962,453.314897 1492.22995,1110.96927 C3059.12419,2147.03441 -140.052689,1427.24794 171.865485,2039.35259" id="Stroke-29" stroke="#1FC4C5"></path>
                        <path d="M2953.27157,59.0026812 C2685.71802,-175.832325 476.837578,476.613372 1495.47864,1112.5541 C3087.38417,2109.25951 -138.976282,1409.26901 183.641037,2048.64806" id="Stroke-31" stroke="#1ACEC5"></path>
                        <path d="M2970.84488,41.3433624 C2721.15654,-162.953704 461.322193,499.911847 1498.72484,1114.13893 C3115.64665,2071.4821 -137.899876,1391.28758 195.416589,2057.94353" id="Stroke-33" stroke="#15D8C6"></path>
                    </g>
                </g>
            </g>
        </g>
    </g>
</svg>
