<?xml version="1.0" standalone="no"?>
<!DOCTYPE svg PUBLIC "-//W3C//DTD SVG 20010904//EN"
 "http://www.w3.org/TR/2001/REC-SVG-20010904/DTD/svg10.dtd">
<svg version="1.0" xmlns="http://www.w3.org/2000/svg"
 width="500.000000pt" height="500.000000pt" viewBox="0 0 500.000000 500.000000"
 preserveAspectRatio="xMidYMid meet">
<metadata>
Created by potrace 1.11, written by Peter Selinger 2001-2013
</metadata>
<g transform="translate(0.000000,500.000000) scale(0.100000,-0.100000)"
fill="#000000" stroke="none">
<path d="M0 2500 l0 -2500 2500 0 2500 0 0 2500 0 2500 -2500 0 -2500 0 0
-2500z m2500 666 l175 -369 3 372 2 371 320 -2 321 -3 447 -953 447 -953 3
955 2 956 40 0 40 0 0 -1040 0 -1040 -320 2 -321 3 -447 950 -447 950 -3 -373
-2 -372 266 -563 c146 -309 270 -570 275 -579 9 -17 -9 -18 -309 -18 l-319 0
-421 883 c-231 485 -438 918 -459 962 l-38 80 -3 -371 -2 -370 256 -530 c141
-291 269 -557 285 -591 l28 -63 -317 0 -317 1 -242 517 c-133 284 -285 608
-337 719 l-94 202 26 27 c15 15 22 24 15 21 -6 -4 -15 -3 -18 3 -4 6 -3 9 2 8
4 -1 18 3 31 10 17 10 21 19 17 35 -4 16 -4 18 3 8 12 -16 27 3 16 21 -4 7 -3
8 4 4 7 -4 12 -2 12 4 0 7 6 10 14 7 20 -8 28 4 14 22 -7 9 -8 13 -4 9 5 -5
16 1 23 12 8 11 19 17 25 14 7 -4 8 -2 4 5 -4 7 4 24 21 40 43 43 54 60 56 80
0 10 7 17 13 14 7 -2 18 5 24 17 6 11 15 18 20 15 5 -3 12 0 16 6 4 7 3 9 -3
6 -6 -4 -13 0 -16 8 -4 9 -1 12 9 8 9 -3 14 0 12 8 -2 8 3 13 11 11 9 -2 11 3
7 14 -6 14 -4 15 9 4 13 -11 16 -11 13 0 -2 8 4 15 13 17 12 3 49 -65 150
-278 l134 -282 3 372 2 371 317 -2 317 -3 176 -369z m-1105 202 c-9 -6 -19 -7
-22 -4 -4 3 -1 6 6 6 7 0 9 4 6 10 -4 6 1 7 11 3 15 -6 15 -7 -1 -15z m-625
-1338 l0 -570 -35 0 -35 0 0 529 c0 326 4 532 10 536 5 3 7 12 4 20 -4 10 1
12 18 9 13 -2 18 -2 11 2 -8 4 -7 10 5 24 9 10 18 19 20 19 1 1 2 -255 2 -569z"/>
</g>
</svg>
